# xmcd
#
# Track frame offsets: 
#        150
#        15867
#        41320
#        77325
#        98985
#        104250
#        114037
#        127285
#        146145
#
# Disc length: 2538 seconds
#
# Revision: 5
# Processed by: cddbd v1.5.2PL0 Copyright (c) Steve Scherf et al.
# Submitted via: ExactAudioCopy v1.0b3
#
DISCID=6509e809
DTITLE=Emil - Emil träumt
DYEAR=1987
DGENRE=Comedy
TTITLE0=Verschlafen
TTITLE1=Traum von der Maus - Der Klavierschüler
TTITLE2=Das Steuerformular
TTITLE3=Walkie Talkie
TTITLE4=Kurzes Erwachen
TTITLE5=Autofahrer in der Kontrolle
TTITLE6=Am Matterhorn
TTITLE7=Das Wahlplakat
TTITLE8=Im Zug
EXTD=
EXTT0=
EXTT1=
EXTT2=
EXTT3=
EXTT4=
EXTT5=
EXTT6=
EXTT7=
EXTT8=
PLAYORDER=
